HIERARCHY
ROOT mixamorig:Hips
{
	OFFSET 0.000000 104.274902 0.000000
	CHANNELS 6 Xposition Yposition Zposition Xrotation Yrotation Zrotation
	JOINT mixamorig:Spine
	{
		OFFSET 0.000000 10.181549 0.131524
		CHANNELS 6 Xposition Yposition Zposition Xrotation Yrotation Zrotation
		JOINT mixamorig:Spine1
		{
			OFFSET 0.000000 9.893990 -1.470706
			CHANNELS 3 Xrotation Yrotation Zrotation
			JOINT mixamorig:Spine2
			{
				OFFSET 0.000000 9.220787 -1.370637
				CHANNELS 3 Xrotation Yrotation Zrotation
				JOINT mixamorig:Neck
				{
					OFFSET 0.000000 16.740372 -2.049022
					CHANNELS 6 Xposition Yposition Zposition Xrotation Yrotation Zrotation
					JOINT mixamorig:Head
					{
						OFFSET 0.000000 9.617859 1.684976
						CHANNELS 6 Xposition Yposition Zposition Xrotation Yrotation Zrotation
						JOINT mixamorig:HeadTop_End
						{
							OFFSET 0.000000 22.037384 7.501072
							CHANNELS 6 Xposition Yposition Zposition Xrotation Yrotation Zrotation
							End Site
							{
								OFFSET 0.000000 23.106567 -2.828246
							}
						}
					}
				}
				JOINT mixamorig:RightShoulder
				{
					OFFSET -4.570000 11.014877 -2.160840
					CHANNELS 6 Xposition Yposition Zposition Xrotation Yrotation Zrotation
					JOINT mixamorig:RightArm
					{
						OFFSET -10.592867 -0.524796 -2.232105
						CHANNELS 3 Xrotation Yrotation Zrotation
						JOINT mixamorig:RightForeArm
						{
							OFFSET -27.841497 0.000000 -0.000002
							CHANNELS 3 Xrotation Yrotation Zrotation
							JOINT mixamorig:RightHand
							{
								OFFSET -28.328812 0.000000 -0.000001
								CHANNELS 3 Xrotation Yrotation Zrotation
								JOINT mixamorig:RightHandThumb1
								{
									OFFSET -2.464798 -1.573990 2.681911
									CHANNELS 6 Xposition Yposition Zposition Xrotation Yrotation Zrotation
									JOINT mixamorig:RightHandThumb2
									{
										OFFSET -3.244781 -1.873383 1.873376
										CHANNELS 3 Xrotation Yrotation Zrotation
										JOINT mixamorig:RightHandThumb3
										{
											OFFSET -2.646263 -1.527817 1.527818
											CHANNELS 6 Xposition Yposition Zposition Xrotation Yrotation Zrotation
											JOINT mixamorig:RightHandThumb4
											{
												OFFSET -1.994591 -1.151581 1.151575
												CHANNELS 6 Xposition Yposition Zposition Xrotation Yrotation Zrotation
												End Site
												{
													OFFSET -1.860176 -1.142715 1.365483
												}
											}
										}
									}
								}
								JOINT mixamorig:RightHandIndex1
								{
									OFFSET -9.108299 -0.517883 2.259803
									CHANNELS 6 Xposition Yposition Zposition Xrotation Yrotation Zrotation
									JOINT mixamorig:RightHandIndex2
									{
										OFFSET -3.699997 0.000000 0.000000
										CHANNELS 3 Xrotation Yrotation Zrotation
										JOINT mixamorig:RightHandIndex3
										{
											OFFSET -2.850006 0.000000 0.000000
											CHANNELS 3 Xrotation Yrotation Zrotation
											JOINT mixamorig:RightHandIndex4
											{
												OFFSET -2.772194 0.000000 0.000000
												CHANNELS 3 Xrotation Yrotation Zrotation
												End Site
												{
													OFFSET -2.772202 0.000000 -0.000484
												}
											}
										}
									}
								}
								JOINT mixamorig:RightHandMiddle1
								{
									OFFSET -9.532501 0.000000 -0.000000
									CHANNELS 6 Xposition Yposition Zposition Xrotation Yrotation Zrotation
									JOINT mixamorig:RightHandMiddle2
									{
										OFFSET -3.699997 0.000000 0.000000
										CHANNELS 3 Xrotation Yrotation Zrotation
										JOINT mixamorig:RightHandMiddle3
										{
											OFFSET -2.949997 0.000000 0.000000
											CHANNELS 3 Xrotation Yrotation Zrotation
											JOINT mixamorig:RightHandMiddle4
											{
												OFFSET -2.946594 0.000000 0.000000
												CHANNELS 3 Xrotation Yrotation Zrotation
												End Site
												{
													OFFSET -2.946602 0.000000 -0.000982
												}
											}
										}
									}
								}
								JOINT mixamorig:RightHandRing1
								{
									OFFSET -9.103600 -0.043106 -1.865100
									CHANNELS 6 Xposition Yposition Zposition Xrotation Yrotation Zrotation
									JOINT mixamorig:RightHandRing2
									{
										OFFSET -3.379303 0.000000 0.000000
										CHANNELS 3 Xrotation Yrotation Zrotation
										JOINT mixamorig:RightHandRing3
										{
											OFFSET -2.889694 0.000000 0.000000
											CHANNELS 3 Xrotation Yrotation Zrotation
											JOINT mixamorig:RightHandRing4
											{
												OFFSET -2.638802 0.000000 0.000000
												CHANNELS 3 Xrotation Yrotation Zrotation
												End Site
												{
													OFFSET -2.638802 0.000000 0.004218
												}
											}
										}
									}
								}
								JOINT mixamorig:RightHandPinky1
								{
									OFFSET -8.076698 -0.486725 -3.806299
									CHANNELS 6 Xposition Yposition Zposition Xrotation Yrotation Zrotation
									JOINT mixamorig:RightHandPinky2
									{
										OFFSET -3.600006 0.000000 0.000000
										CHANNELS 3 Xrotation Yrotation Zrotation
										JOINT mixamorig:RightHandPinky3
										{
											OFFSET -2.099998 0.000000 0.000000
											CHANNELS 3 Xrotation Yrotation Zrotation
											JOINT mixamorig:RightHandPinky4
											{
												OFFSET -2.115791 0.000000 0.000000
												CHANNELS 3 Xrotation Yrotation Zrotation
												End Site
												{
													OFFSET -2.115799 0.000000 0.000174
												}
											}
										}
									}
								}
							}
						}
					}
				}
				JOINT mixamorig:LeftShoulder
				{
					OFFSET 4.570400 11.014679 -2.160816
					CHANNELS 6 Xposition Yposition Zposition Xrotation Yrotation Zrotation
					JOINT mixamorig:LeftArm
					{
						OFFSET 10.592373 -0.524597 -2.232116
						CHANNELS 3 Xrotation Yrotation Zrotation
						JOINT mixamorig:LeftForeArm
						{
							OFFSET 27.841488 0.000000 0.000001
							CHANNELS 3 Xrotation Yrotation Zrotation
							JOINT mixamorig:LeftHand
							{
								OFFSET 28.328808 0.000000 -0.000000
								CHANNELS 3 Xrotation Yrotation Zrotation
								JOINT mixamorig:LeftHandThumb1
								{
									OFFSET 2.466103 -1.576202 2.681698
									CHANNELS 6 Xposition Yposition Zposition Xrotation Yrotation Zrotation
									JOINT mixamorig:LeftHandThumb2
									{
										OFFSET 3.243317 -1.872528 1.872530
										CHANNELS 3 Xrotation Yrotation Zrotation
										JOINT mixamorig:LeftHandThumb3
										{
											OFFSET 2.647881 -1.528763 1.528754
											CHANNELS 6 Xposition Yposition Zposition Xrotation Yrotation Zrotation
											JOINT mixamorig:LeftHandThumb4
											{
												OFFSET 1.998924 -1.154083 1.154080
												CHANNELS 6 Xposition Yposition Zposition Xrotation Yrotation Zrotation
												End Site
												{
													OFFSET 1.884041 -1.149155 1.337651
												}
											}
										}
									}
								}
								JOINT mixamorig:LeftHandIndex1
								{
									OFFSET 9.109299 -0.518005 2.259900
									CHANNELS 6 Xposition Yposition Zposition Xrotation Yrotation Zrotation
									JOINT mixamorig:LeftHandIndex2
									{
										OFFSET 3.699997 0.000000 0.000000
										CHANNELS 3 Xrotation Yrotation Zrotation
										JOINT mixamorig:LeftHandIndex3
										{
											OFFSET 2.850006 0.000000 0.000000
											CHANNELS 3 Xrotation Yrotation Zrotation
											JOINT mixamorig:LeftHandIndex4
											{
												OFFSET 2.774895 0.000000 0.000000
												CHANNELS 3 Xrotation Yrotation Zrotation
												End Site
												{
													OFFSET 2.774902 0.000000 -0.000072
												}
											}
										}
									}
								}
								JOINT mixamorig:LeftHandMiddle1
								{
									OFFSET 9.533401 0.000000 0.000000
									CHANNELS 6 Xposition Yposition Zposition Xrotation Yrotation Zrotation
									JOINT mixamorig:LeftHandMiddle2
									{
										OFFSET 3.699997 0.000000 0.000000
										CHANNELS 3 Xrotation Yrotation Zrotation
										JOINT mixamorig:LeftHandMiddle3
										{
											OFFSET 2.949997 0.000000 0.000000
											CHANNELS 3 Xrotation Yrotation Zrotation
											JOINT mixamorig:LeftHandMiddle4
											{
												OFFSET 2.952896 0.000000 0.000000
												CHANNELS 3 Xrotation Yrotation Zrotation
												End Site
												{
													OFFSET 2.952904 0.000000 0.000165
												}
											}
										}
									}
								}
								JOINT mixamorig:LeftHandRing1
								{
									OFFSET 9.104500 -0.042999 -1.865101
									CHANNELS 6 Xposition Yposition Zposition Xrotation Yrotation Zrotation
									JOINT mixamorig:LeftHandRing2
									{
										OFFSET 3.149994 0.000000 0.000000
										CHANNELS 3 Xrotation Yrotation Zrotation
										JOINT mixamorig:LeftHandRing3
										{
											OFFSET 2.950005 0.000000 0.000000
											CHANNELS 3 Xrotation Yrotation Zrotation
											JOINT mixamorig:LeftHandRing4
											{
												OFFSET 2.644302 0.000000 0.000000
												CHANNELS 3 Xrotation Yrotation Zrotation
												End Site
												{
													OFFSET 2.644302 0.000000 0.000083
												}
											}
										}
									}
								}
								JOINT mixamorig:LeftHandPinky1
								{
									OFFSET 8.077805 -0.486893 -3.806302
									CHANNELS 6 Xposition Yposition Zposition Xrotation Yrotation Zrotation
									JOINT mixamorig:LeftHandPinky2
									{
										OFFSET 3.600006 0.000000 0.000000
										CHANNELS 3 Xrotation Yrotation Zrotation
										JOINT mixamorig:LeftHandPinky3
										{
											OFFSET 2.099998 0.000000 0.000000
											CHANNELS 3 Xrotation Yrotation Zrotation
											JOINT mixamorig:LeftHandPinky4
											{
												OFFSET 2.125496 0.000000 0.000000
												CHANNELS 3 Xrotation Yrotation Zrotation
												End Site
												{
													OFFSET 2.125504 0.000000 -0.001254
												}
											}
										}
									}
								}
							}
						}
					}
				}
			}
		}
	}
	JOINT mixamorig:RightUpLeg
	{
		OFFSET -8.207800 -6.751701 -1.599544
		CHANNELS 6 Xposition Yposition Zposition Xrotation Yrotation Zrotation
		JOINT mixamorig:RightLeg
		{
			OFFSET 0.000004 -44.370152 0.345934
			CHANNELS 3 Xrotation Yrotation Zrotation
			JOINT mixamorig:RightFoot
			{
				OFFSET 0.000004 -44.423664 -3.043535
				CHANNELS 3 Xrotation Yrotation Zrotation
				JOINT mixamorig:RightToeBase
				{
					OFFSET 0.000001 -8.728691 10.710592
					CHANNELS 3 Xrotation Yrotation Zrotation
					JOINT mixamorig:RightToe_End
					{
						OFFSET 0.000000 -0.000665 9.278101
						CHANNELS 3 Xrotation Yrotation Zrotation
						End Site
						{
							OFFSET 0.000000 -0.000665 9.278103
						}
					}
				}
			}
		}
	}
	JOINT mixamorig:LeftUpLeg
	{
		OFFSET 8.207800 -6.751701 -1.599544
		CHANNELS 6 Xposition Yposition Zposition Xrotation Yrotation Zrotation
		JOINT mixamorig:LeftLeg
		{
			OFFSET 0.000004 -44.370037 0.346940
			CHANNELS 3 Xrotation Yrotation Zrotation
			JOINT mixamorig:LeftFoot
			{
				OFFSET 0.000004 -44.423611 -3.044388
				CHANNELS 3 Xrotation Yrotation Zrotation
				JOINT mixamorig:LeftToeBase
				{
					OFFSET 0.000001 -8.728690 10.710592
					CHANNELS 3 Xrotation Yrotation Zrotation
					JOINT mixamorig:LeftToe_End
					{
						OFFSET 0.000000 -0.000680 9.278101
						CHANNELS 3 Xrotation Yrotation Zrotation
						End Site
						{
							OFFSET 0.000000 -0.000680 9.278101
						}
					}
				}
			}
		}
	}
}
MOTION
Frames: 4
Frame Time: 0.033333
-0.133329 61.666260 3.538428 0.143640 -1.683831 0.996958 -0.000000 10.181541 0.131523 10.430374 -0.038256 -1.590395 -0.199261 0.213339 -0.355462 -0.199588 0.248539 -0.300880 -0.000000 16.740368 -2.049020 -1.001766 -1.284342 0.469464 -0.000001 9.617840 1.684978 -8.883496 -4.327063 -5.321560 0.000001 22.037354 7.501074 0.000000 -0.000000 -0.000000 -4.570001 11.014885 -2.160840 3.171099 -4.378716 8.782870 -3.950340 37.253378 63.733711 -0.000020 55.137914 0.000060 43.537326 4.740982 -36.277962 -2.464798 -1.574005 2.681907 -9.379609 -1.608143 -17.590070 3.567392 -24.327746 34.660143 -2.646255 -1.527821 1.527817 -6.631137 -37.483836 -11.205914 -1.994588 -1.151585 1.151567 0.000000 -0.000005 0.000005 -9.108306 -0.517869 2.259803 2.955231 1.016296 13.530105 0.472390 -2.045548 26.004743 0.059886 -0.745253 9.188337 0.000000 0.000000 0.000001 -9.532499 0.000003 -0.000001 0.106164 -3.662180 2.562211 0.585183 -2.262015 29.005334 0.020464 -0.436573 5.367144 0.000001 -0.000002 0.000005 -9.103593 -0.043098 -1.865104 0.456376 -7.645186 4.304395 0.107483 -0.995854 12.320591 0.072512 -0.819493 10.112764 -0.000001 -0.000000 0.000001 -8.076700 -0.486706 -3.806304 -11.155564 -10.226986 7.170438 0.029133 -0.520505 6.403079 0.028872 -0.518361 6.376449 0.000002 0.000000 -0.000003 4.570401 11.014687 -2.160814 0.823537 -15.262018 -7.868727 4.748695 -21.214568 -54.860780 0.000007 -62.200060 0.000011 31.062850 4.320061 41.771036 2.466099 -1.576193 2.681698 6.610703 1.798340 20.801491 2.716332 20.172564 -24.389176 2.647887 -1.528766 1.528751 -5.537219 29.849535 5.070925 1.998924 -1.154085 1.154078 0.000000 -0.000003 -0.000000 9.109291 -0.518015 2.259897 -0.233359 2.791956 -26.914255 0.396790 2.121311 -21.189303 0.083125 0.984455 -9.653131 0.000001 0.000001 -0.000000 9.533401 0.000014 -0.000003 1.299107 7.334442 -16.510449 0.329966 1.940197 -19.303069 0.233096 1.637801 -16.201258 0.000002 -0.000002 0.000005 9.104501 -0.042987 -1.865104 1.797262 9.808227 -14.183354 0.205906 1.541156 -15.220911 0.265290 1.744758 -17.292062 0.000000 -0.000000 0.000003 8.077808 -0.486889 -3.806306 2.042322 10.867412 -13.918244 0.168498 1.396436 -13.761335 0.107146 1.116571 -10.963887 -0.000002 0.000000 -0.000002 -8.207799 -6.751709 -1.599543 -86.501436 6.478687 -7.768160 82.287011 -6.149228 -1.863357 5.456981 -0.020754 7.088630 -0.191609 0.000007 -0.000002 0.000000 0.000000 -0.000000 8.207801 -6.751709 -1.599550 -85.815118 -4.812809 11.307171 82.490039 6.434440 0.237081 4.317271 -7.027155 -6.113689 -0.102146 -0.000005 0.000002 0.000000 -0.000000 0.000000 
-0.061875 61.967957 2.864506 -4.456981 -1.613891 1.443632 0.000000 10.181558 0.131523 10.153217 -0.228437 -1.618991 4.146532 0.109511 -0.523495 4.145289 0.123216 -0.491179 0.000000 16.740370 -2.049024 -0.848035 -1.006571 0.285968 -0.000000 9.617837 1.684974 -12.506748 -3.158197 -4.877409 0.000001 22.037384 7.501076 -0.000000 -0.000000 -0.000000 -4.570004 11.014888 -2.160845 2.955854 -4.540412 8.738762 -11.933456 41.117739 64.926303 -0.000034 48.979608 0.000066 40.356268 7.135469 -38.624556 -2.464794 -1.573985 2.681908 -9.432826 -1.620359 -17.565469 3.570776 -24.329593 34.673230 -2.646263 -1.527819 1.527816 -6.631136 -37.483832 -11.205930 -1.994586 -1.151581 1.151571 0.000004 0.000001 0.000001 -9.108309 -0.517885 2.259804 2.952822 1.015024 13.571914 0.472380 -2.045546 26.004760 0.059886 -0.745274 9.188310 -0.000000 0.000002 0.000000 -9.532509 0.000004 0.000000 0.106157 -3.662201 2.562210 0.585186 -2.262010 29.005334 0.020592 -0.437898 5.383459 -0.000001 -0.000004 0.000003 -9.103606 -0.043097 -1.865103 0.457568 -7.660982 4.303250 0.107681 -0.996756 12.331971 0.072517 -0.819483 10.112758 0.000000 -0.000000 -0.000003 -8.076698 -0.486701 -3.806303 -11.153640 -10.242000 7.169532 0.028978 -0.519253 6.387594 0.028870 -0.518350 6.376451 0.000000 -0.000000 0.000002 4.570402 11.014686 -2.160820 0.826782 -14.744731 -7.992451 -1.806542 -23.905870 -53.375336 -0.000030 -57.417125 -0.000031 29.559314 1.965099 41.609219 2.466105 -1.576194 2.681699 7.262702 2.135180 20.677148 2.975366 19.224085 -24.664670 2.647884 -1.528755 1.528755 -5.858429 30.658919 5.871227 1.998937 -1.154068 1.154078 0.000003 -0.000003 -0.000005 9.109290 -0.518005 2.259900 -0.229956 2.838153 -27.343359 0.397929 2.124216 -21.219760 0.083637 0.987516 -9.683335 0.000001 -0.000002 -0.000002 9.533417 0.000013 0.000002 1.343570 7.391093 -16.940898 0.343264 1.977749 -19.692318 0.233965 1.640770 -16.231468 -0.000000 0.000002 0.000000 9.104507 -0.042987 -1.865098 1.862805 9.862703 -14.640596 0.217176 1.581966 -15.634364 0.266264 1.747845 -17.323716 0.000000 0.000003 0.000002 8.077805 -0.486868 -3.806300 2.054766 10.898241 -13.951954 0.169240 1.399451 -13.791502 0.107736 1.119597 -10.993841 0.000001 0.000001 -0.000003 -8.207799 -6.751705 -1.599538 -82.748985 5.405281 -8.403654 83.736562 -5.841121 -1.707131 6.200520 0.089464 7.078213 -0.891310 0.017765 -1.327571 -0.000000 -0.000001 -0.000000 8.207798 -6.751704 -1.599548 -81.618274 -3.502393 10.542038 83.777891 2.751623 0.268909 3.703068 -4.470765 -7.264290 -0.984589 0.000001 -0.000002 -0.000000 -0.000000 0.000000 
-0.043784 62.076073 1.664396 -9.237742 -1.328594 2.206384 0.000000 10.181541 0.131524 10.153882 -0.390541 -1.648462 9.507909 0.143246 -0.656810 9.506335 0.125449 -0.648030 -0.000000 16.740379 -2.049021 -0.853369 -0.759300 -0.294260 -0.000001 9.617827 1.684972 -17.937725 -2.638995 -4.146344 -0.000001 22.037384 7.501071 -0.000000 -0.000000 0.000000 -4.570003 11.014882 -2.160840 2.754702 -4.645045 8.676429 -20.342195 42.643624 66.238744 -0.000020 46.373812 0.000060 38.715005 8.727974 -40.628130 -2.464788 -1.574004 2.681905 -9.496224 -1.634884 -17.536097 3.589362 -24.331786 34.758935 -2.646255 -1.527804 1.527811 -6.631159 -37.483856 -11.205935 -1.994586 -1.151586 1.151575 0.000003 -0.000002 -0.000002 -9.108305 -0.517872 2.259804 2.948567 1.012670 13.651559 0.472391 -2.045550 26.004735 0.059886 -0.745257 9.188344 -0.000002 0.000002 0.000004 -9.532499 0.000004 -0.000000 0.106164 -3.662166 2.562198 0.585181 -2.262030 29.005351 0.020682 -0.438918 5.396048 -0.000001 -0.000001 0.000004 -9.103597 -0.043112 -1.865099 0.459776 -7.703541 4.288667 0.108045 -0.998402 12.352649 0.072512 -0.819472 10.112776 -0.000004 -0.000001 -0.000001 -8.076695 -0.486700 -3.806304 -11.149283 -10.276071 7.167513 0.028498 -0.515009 6.334851 0.028861 -0.518345 6.376457 -0.000001 0.000002 -0.000000 4.570401 11.014692 -2.160815 0.848309 -13.898404 -8.262469 -8.970802 -27.436791 -51.279397 0.000004 -54.820249 0.000002 28.495322 -0.027739 41.456608 2.466105 -1.576202 2.681700 8.013081 2.496714 20.555809 3.256029 18.185537 -24.983280 2.647888 -1.528767 1.528756 -6.239859 31.589130 6.723051 1.998914 -1.154085 1.154088 0.000000 0.000005 -0.000002 9.109298 -0.518011 2.259901 -0.218960 2.896985 -27.919631 0.399055 2.127122 -21.250196 0.084161 0.990571 -9.713565 -0.000003 -0.000000 -0.000002 9.533412 -0.000001 -0.000002 1.404252 7.468434 -17.510375 0.361917 2.029075 -20.225795 0.234843 1.643740 -16.261724 0.000000 -0.000003 0.000003 9.104504 -0.043004 -1.865100 1.952162 9.944695 -15.233654 0.232784 1.636707 -16.190342 0.267228 1.750947 -17.355381 0.000003 -0.000000 0.000004 8.077805 -0.486887 -3.806302 2.074393 10.957437 -13.983664 0.169974 1.402459 -13.821660 0.108316 1.122604 -11.023818 0.000003 0.000000 -0.000002 -8.207800 -6.751708 -1.599544 -79.541166 4.434304 -9.491847 84.915698 -4.793035 -1.282087 7.316912 0.184925 7.274557 -0.297112 0.000328 -0.178329 0.000000 -0.000000 -0.000000 8.207800 -6.751711 -1.599552 -77.997659 -2.108450 9.305244 84.696156 -1.490799 0.306725 1.325943 -2.103095 -7.000362 -2.076364 0.000001 0.000002 -0.000000 0.000000 0.000000 
-0.049082 62.131180 0.343552 -13.131263 -1.118416 2.817966 0.000000 10.181553 0.131522 10.378682 -0.600219 -1.729272 15.031803 0.311389 -0.790444 15.030813 0.253467 -0.798548 -0.000000 16.740381 -2.049018 -1.481775 -0.609014 -1.085172 0.000001 9.617844 1.684985 -24.742326 -2.846617 -3.261099 0.000000 22.037384 7.501070 -0.000000 0.000000 0.000000 -4.570000 11.014876 -2.160838 2.443362 -4.441628 8.202252 -27.956297 39.464563 68.532916 -0.000011 48.704388 0.000038 40.558234 9.588594 -41.281264 -2.464795 -1.573985 2.681908 -9.568607 -1.651557 -17.502633 3.624454 -24.327558 34.910371 -2.646268 -1.527809 1.527814 -6.631140 -37.483849 -11.205920 -1.994583 -1.151585 1.151567 -0.000001 -0.000003 -0.000003 -9.108299 -0.517870 2.259804 2.943009 1.009396 13.764528 0.472386 -2.045557 26.004745 0.059891 -0.745257 9.188326 0.000002 -0.000001 0.000002 -9.532496 0.000006 0.000001 0.106154 -3.662187 2.562207 0.585184 -2.262032 29.005324 0.020761 -0.439665 5.405321 -0.000002 -0.000003 0.000007 -9.103599 -0.043111 -1.865100 0.462063 -7.769107 4.254279 0.108555 -1.000692 12.381489 0.072498 -0.819479 10.112786 0.000002 0.000000 -0.000000 -8.076696 -0.486704 -3.806304 -11.144128 -10.324274 7.154956 0.027735 -0.508054 6.249336 0.028867 -0.518352 6.376459 0.000002 0.000000 -0.000001 4.570404 11.014694 -2.160815 0.883771 -12.911072 -8.598238 -14.688513 -30.358470 -48.368377 0.000006 -57.087107 0.000005 28.338110 0.157981 41.471379 2.466104 -1.576191 2.681696 8.849915 2.878312 20.432926 3.553148 17.066215 -25.335588 2.647883 -1.528760 1.528748 -6.667839 32.617722 7.628394 1.998921 -1.154082 1.154080 0.000001 0.000003 -0.000002 9.109303 -0.518010 2.259899 -0.212593 2.953692 -28.625996 0.400200 2.130043 -21.280633 0.084686 0.993607 -9.743781 -0.000001 -0.000001 -0.000002 9.533398 0.000014 -0.000002 1.480195 7.563341 -18.203608 0.385609 2.092232 -20.884801 0.235704 1.646713 -16.291948 0.000003 -0.000001 0.000001 9.104507 -0.042990 -1.865102 2.063722 10.050093 -15.946671 0.252649 1.703594 -16.871732 0.268202 1.754043 -17.387044 0.000001 -0.000000 0.000001 8.077802 -0.486885 -3.806305 2.100434 11.041664 -14.013681 0.170704 1.405439 -13.851766 0.108901 1.125600 -11.053767 -0.000002 0.000002 -0.000005 -8.207800 -6.751702 -1.599539 -77.502648 3.586978 -10.556384 85.249312 -2.833593 -0.715013 9.611812 0.255953 6.461138 -0.404496 -0.000006 0.000002 -0.000000 0.000000 -0.000000 8.207798 -6.751703 -1.599549 -76.014207 -1.280228 8.137827 85.774779 -5.377702 0.346271 0.532753 -0.456126 -7.114199 -2.618831 -0.000000 0.000000 -0.000001 0.000000 0.000000 
